<!DOCTYPE svg PUBLIC "-//W3C//DTD SVG 1.1//EN" "http://www.w3.org/Graphics/SVG/1.1/DTD/svg11.dtd" [
	<!ENTITY ns_flows "http://ns.adobe.com/Flows/1.0/">
]><svg xmlns="http://www.w3.org/2000/svg" xmlns:xlink="http://www.w3.org/1999/xlink" width="207" height="112" viewBox="0 0 207 112"><defs><path id="a" d="M0 0h207.4v111.8H0z"/></defs><clipPath id="b"><use xlink:href="#a" overflow="visible"/></clipPath><g clip-path="url(#b)"><text transform="translate(0 61.91)"><tspan x="0" y="0" fill="#404040" font-family="'AGaramondPro-Bold'" font-size="27.673">G</tspan><tspan x="20.3" y="0" fill="#404040" font-family="'AGaramondPro-Bold'" font-size="27.673">L</tspan><tspan x="35.7" y="0" fill="#404040" font-family="'AGaramondPro-Bold'" font-size="27.673">OBAL GREEN</tspan></text></g><text transform="translate(20.876 75.77)"><tspan x="0" y="0" fill="#404040" font-family="'AGaramondPro-Regular'" font-size="9.117" letter-spacing="4">INVE</tspan><tspan x="39.9" y="0" fill="#404040" font-family="'AGaramondPro-Regular'" font-size="9.117" letter-spacing="4">S</tspan><tspan x="48.9" y="0" fill="#404040" font-family="'AGaramondPro-Regular'" font-size="9.117" letter-spacing="4">TM</tspan><tspan x="72.4" y="0" fill="#404040" font-family="'AGaramondPro-Regular'" font-size="9.117" letter-spacing="4">E</tspan><tspan x="82.3" y="0" fill="#404040" font-family="'AGaramondPro-Regular'" font-size="9.117" letter-spacing="4">NT</tspan><tspan x="111.4" y="0" fill="#404040" font-family="'AGaramondPro-Regular'" font-size="9.117" letter-spacing="4">G</tspan><tspan x="122.7" y="0" fill="#404040" font-family="'AGaramondPro-Regular'" font-size="9.117" letter-spacing="4">R</tspan><tspan x="132.8" y="0" fill="#404040" font-family="'AGaramondPro-Regular'" font-size="9.117" letter-spacing="4">O</tspan><tspan x="144.6" y="0" fill="#404040" font-family="'AGaramondPro-Regular'" font-size="9.117" letter-spacing="4">U</tspan><tspan x="156" y="0" fill="#404040" font-family="'AGaramondPro-Regular'" font-size="9.117">P</tspan></text><defs><path id="c" d="M0 0h207.4v111.8H0z"/></defs><clipPath id="d"><use xlink:href="#c" overflow="visible"/></clipPath><path clip-path="url(#d)" fill="#00C7EF" d="M59.9 29.3c8.2-15.8 24.8-26.7 43.8-26.7s35.6 10.9 43.8 26.7h2.9C142 12 124.2 0 103.7 0 83.2 0 65.4 12 57 29.3h2.9z"/><path clip-path="url(#d)" fill="#26D5BA" d="M143.9 88.4c-8.9 12.6-23.6 20.8-40.2 20.8S72.4 101 63.5 88.4h-3.1c9.3 14.1 25.2 23.4 43.3 23.4 18.1 0 34-9.3 43.3-23.4h-3.1z"/><path clip-path="url(#d)" fill="#404040" d="M45.2 86.4h117v2.4h-117zM23.2 28.6h66.6V31H23.2zM117.6 28.6h66.6V31h-66.6z"/><path clip-path="url(#d)" fill-rule="evenodd" clip-rule="evenodd" fill="#404040" d="M96.5 22.7v-.8c.4.1.8.1 1.2.2-.2-.1-.6-.2-.9-.4-.1-.1-.2-.1-.2-.2-.1-.2.1-.4.3-.4.2 0 .6.1 1 .2-.2 0-.3-.1-.4-.2-.2-.1-.5-.1-.6-.2-.1-.1-.1-.5 0-.6.1-.2.3-.1.5 0s.4.1.6.1c-.2-.2-.7-.3-.9-.4 0-.3.1-.8.5-.7.3.1.7.5 1.1.5-.2-.4-.8-.6-1.1-.8.1-.2.3-.4.4-.7.3.2.8.7 1.2.8-.2-.4-.6-.7-.9-1 .2-.2.4-.3.5-.5.2.3.4.9.8 1.1 0-.4-.3-.9-.5-1.3l.6-.3c.2.4.3 1 .7 1.3.1-.4-.2-1-.3-1.4.4-.1.7-.1 1.1-.2.1.5.1 1 .3 1.5.1-.5-.1-1 0-1.4.2 0 .5 0 .7.1.2.1.2.2.2.4 0 .4 0 .7.1 1.1h.1c0-.3 0-.8.1-1.1.1-.2.2-.2.4-.1.1.1.4.1.5.2 0 0 .1 1.4.1 1.5 0 0 .1-1.3.2-1.3.2.1.4.3.6.4 0 0-.3 1.1-.2 1.1l.5-.9c.1.1.3.3.5.4 0 0-.4.8-.3.8 0 .1.5-.6.6-.6.1.1.2.4.2.5 0 0-.6.6-.5.6 0 .1.7-.4.7-.3.4.7 1.1 1.4 2 1.8v-.1c-.5-.9-1.2-1.5-.8-2.8 1.4-1.4 3.4.1 4.1 1.6v.3l-.5-.5h-.1c.1 0 0 1.4-.1 1.6-.2.4-.6.4-.6-.1.1-.6.6-1.1.1-1.6-.1.1-.3 0-.4.1-1.6 2.4 1.8 2.7 1.4 6.5-.3 2.6-2.9 2.2-3.7 3.4-.2.5.1 1.2.4 1.5.8.2 1.4.2 1.4.6-.2-.1-.5-.3-.8-.3v.5c-.5-.6-.9-.7-1.4-.3.3-.7.2-1.6-.5-2.2-.5-.1-1-.1-1.4-.2-.2.1-.3.2-.5.3-.3 1.8.5 1.2 1 2.1-.3-.2-.6-.4-1-.4.1.3.2.4.1.6-.3-.8-.6-1.1-1.3-.6v-.4c.7-.2.8-.4.7-1.3-.1-.3-.1-.4-.4-.5-.5-.1-.9.2-1.3.4s-.8.4-1.3.4c.1-.2.3-.3.3-.5-.2.1-.4.2-.5.4-.3.2-.5.1-.9 0 .3-.4.6-.6.9-1-.3.2-.5.4-.8.6l-.3.3c-.2.1-.7-.3-.9-.4.3-.3.8-.5 1-.9-.3.1-.6.3-.9.5-.1 0-.3.2-.4.2-.2 0-.7-.5-.8-.6.4-.4 1-.6 1.4-1-.6.1-1.1.6-1.7.7-.2-.2-.5-.5-.6-.7.3-.3.8-.4 1.1-.5.3-.1.5-.2.8-.3.2-.1.5-.1.4-.3-.5 0-.9.3-1.3.4-.2-.3-.4-.5 0-.7.3-.1.5-.2.7-.4-.2 0-.8.2-1 .1-.3 0-.2-.3-.3-.5.3-.2.7-.3 1.1-.4-.2.1-.6.1-.9.1-.5 0-.4-.4-.4-.8.4-.1.8 0 1.1-.2-.3-.1-.6 0-.9-.1-.3-.1-.4-.5-.2-.8.1-.3.4-.2.6-.2.2 0 .5-.1.7-.1-1-.3-1.4-.3-1.9-.3"/></svg>