<!DOCTYPE svg PUBLIC "-//W3C//DTD SVG 1.1//EN" "http://www.w3.org/Graphics/SVG/1.1/DTD/svg11.dtd" [
	<!ENTITY ns_flows "http://ns.adobe.com/Flows/1.0/">
]><svg xmlns="http://www.w3.org/2000/svg" xmlns:xlink="http://www.w3.org/1999/xlink" width="67" height="67" viewBox="0 0 67 67"><defs><path id="a" d="M0 0h66.6v66.7H0z"/></defs><clipPath id="b"><use xlink:href="#a" overflow="visible"/></clipPath><path fill="#00bde3" clip-path="url(#b)" d="M25.8 3.9c1.2-.3 2.5-.5 3.7-.7.3 0 .6-.1.9-.1L30.1.2c-.2 0-.4 0-.7.1h-.2c-2.6.4-3.4.5-4.2.7l.8 2.9zm-8.7 3.7c1.3-.8 2.7-1.6 4.2-2.2l-1.2-2.7H20c-.7.4-1.4.8-2 1.2l-.9 3.7zM10 13.8c1-1.2 2.1-2.3 3.3-3.4l-1.9-2.2c-1.3 1.1-2.5 2.4-3.6 3.7l2.2 1.9zm-4.9 8c.6-1.5 1.3-2.9 2.1-4.2l-2.5-1.5c-.8 1.4-1.5 2.8-2.1 4.2l2.5 1.5zM3 31c.1-1.6.4-3.1.7-4.7l-2.9-.7c-.2.7-.3 1.4-.4 2.1v.1C.1 29.5.1 30 0 30.4v.1l3 .5zM.8 41l2.9-.7c-.3-1.1-.5-2.2-.6-3.3-.1-.4-.1-.8-.1-1.3l-3 .2v.3c0 .3.1.6.1.9v.4c.1.3.1.7.2 1v.1c.3 1.7.4 2.1.5 2.4m3.9 9.6l2.5-1.5c-.8-1.3-1.5-2.8-2.1-4.2L2.4 46c.7 1.8 1.5 3.2 2.3 4.6m6.7 7.9l1.9-2.2c-1.2-1-2.3-2.2-3.3-3.4l-2.3 1.9c1.2 1.3 2.4 2.6 3.7 3.7m8.7 5.5l1.2-2.7c-1.4-.6-2.9-1.4-4.2-2.2l-1.6 2.5c.6.4 1.2.8 1.9 1.1H17.7c1.8 1 2.1 1.1 2.4 1.3m10 2.5l.3-3c-1.6-.1-3.1-.4-4.6-.8l-.8 3c.3.1.5.1.8.2.4.1.8.1 1.1.2h.2c2.2.3 2.6.4 3 .4M33.2 0v66.7c18.4 0 33.3-14.9 33.3-33.3C66.6 14.9 51.6 0 33.2 0"/></svg>