<!DOCTYPE svg PUBLIC "-//W3C//DTD SVG 1.1//EN" "http://www.w3.org/Graphics/SVG/1.1/DTD/svg11.dtd" [
	<!ENTITY ns_flows "http://ns.adobe.com/Flows/1.0/">
]><svg xmlns="http://www.w3.org/2000/svg" xmlns:xlink="http://www.w3.org/1999/xlink" width="41" height="41" viewBox="0 0 64 64" enable-background="new 0 0 64 64"><defs><path id="a" d="M0 0h64.2v64.2H0z"/></defs><clipPath id="b"><use xlink:href="#a" overflow="visible"/></clipPath><path fill="#00bde3" clip-path="url(#b)" d="M45.9 21.8L27.3 40.4l-8.2-8.2c-.6-.6-1.5-.6-2.1 0-.6.6-.6 1.5 0 2.1l9.3 9.3c.3.3.7.4 1 .4s.8-.2 1-.4L48 23.9c.6-.6.6-1.5 0-2.1-.6-.6-1.5-.6-2.1 0"/><path clip-path="url(#b)" fill="none" stroke="#00bde3" stroke-width="2" stroke-miterlimit="10" d="M45.9 21.8L27.3 40.4l-8.2-8.2c-.6-.6-1.5-.6-2.1 0-.6.6-.6 1.5 0 2.1l9.3 9.3c.3.3.7.4 1 .4s.8-.2 1-.4L48 23.9c.6-.6.6-1.5 0-2.1-.6-.6-1.5-.6-2.1 0z"/><path fill="#00bde3" clip-path="url(#b)" d="M32.1 1C15.2 1 1 15.2 1 32.1 1 49 15.2 63.2 32.1 63.2 49 63.2 63.2 49 63.2 32.1 63.2 15.2 49 1 32.1 1m0 59.3C16.9 60.3 4 47.4 4 32.1 4 16.9 16.9 4 32.1 4c15.3 0 28.1 12.9 28.1 28.1.1 15.3-12.8 28.2-28.1 28.2"/><path clip-path="url(#b)" fill="none" stroke="#00bde3" stroke-width="2" stroke-miterlimit="10" d="M32.1 1C15.2 1 1 15.2 1 32.1 1 49 15.2 63.2 32.1 63.2 49 63.2 63.2 49 63.2 32.1 63.2 15.2 49 1 32.1 1zm0 59.3C16.9 60.3 4 47.4 4 32.1 4 16.9 16.9 4 32.1 4c15.3 0 28.1 12.9 28.1 28.1.1 15.3-12.8 28.2-28.1 28.2z"/></svg>