<!DOCTYPE svg PUBLIC "-//W3C//DTD SVG 1.1//EN" "http://www.w3.org/Graphics/SVG/1.1/DTD/svg11.dtd" [
	<!ENTITY ns_flows "http://ns.adobe.com/Flows/1.0/">
]><svg xmlns="http://www.w3.org/2000/svg" xmlns:xlink="http://www.w3.org/1999/xlink" width="42" height="36" viewBox="0 0 67 58"><path fill="#00bde3" d="M11.9 45.8l2.1-3.7 8.4 7.9 3.8-8.1-4-2.1-1.2 2.7-8.1-7.6-5 8.8M24 36.1l4 2.1 2.3-5-4-2.1"/><path fill="#00bde3" d="M0 .3v57.9h62.6v-3.8H7l2.9-5.1-4-2-2.2 3.8V.3"/><defs><path id="a" d="M0 0h66.7v58.2H0z"/></defs><clipPath id="b"><use xlink:href="#a" overflow="visible"/></clipPath><path fill="#00bde3" clip-path="url(#b)" d="M66.6 16.8L64.2 0 47.6 4.8c-1.2.3-1.9 1.6-1.5 2.8.3 1.2 1.6 1.9 2.8 1.5l8.2-2.4-15 23.5-9.4-12.5-4.6 9.7 4 2.1 1.5-3.1 8.9 11.7L61 9l1.2 8.5c.2 1.1 1.1 1.9 2.2 1.9h.3c1.3-.3 2.1-1.4 1.9-2.6"/></svg>