<!DOCTYPE svg PUBLIC "-//W3C//DTD SVG 1.1//EN" "http://www.w3.org/Graphics/SVG/1.1/DTD/svg11.dtd" [
	<!ENTITY ns_flows "http://ns.adobe.com/Flows/1.0/">
]><svg xmlns="http://www.w3.org/2000/svg" xmlns:xlink="http://www.w3.org/1999/xlink" width="35" height="46" viewBox="0 0 30 39"><defs><path fill="#00bde3" id="a" d="M0 0h29.6v39.4H0z"/></defs><clipPath id="b"><use xlink:href="#a" overflow="visible"/></clipPath><path fill="#00bde3" clip-path="url(#b)" d="M14.8 39.4l-7.5-5.9C2.7 29.9 0 24.4 0 18.5V5.7l.6-.1c1.5-.2 3.9-.6 6.3-1.4 3.2-1 5.7-2.2 7.4-3.8l.5-.4.5.4c1.7 1.5 4.1 2.8 7.4 3.8 2.4.8 4.8 1.2 6.3 1.4l.6.1v12.8c0 5.9-2.7 11.3-7.3 15l-7.5 5.9zM1.5 7v11.6C1.5 24 3.9 29 8.2 32.4l6.6 5.2 6.6-5.2c4.3-3.3 6.7-8.3 6.7-13.8V7c-1.6-.3-3.7-.7-5.9-1.3-3.1-1-5.6-2.1-7.4-3.6-1.8 1.4-4.3 2.6-7.4 3.5C5.2 6.2 3 6.7 1.5 7"/><path fill="#00bde3" clip-path="url(#b)" d="M14.1.7h1.5v37h-1.5z"/><path fill="#00bde3" clip-path="url(#b)" d="M.7 18.5h28.1V20H.7z"/><path fill="#00bde3" transform="matrix(-.707 -.707 .707 -.707 .204 16.751)" clip-path="url(#b)" d="M2.8 4.4h1.5v7.9H2.8z"/><path fill="#00bde3" transform="matrix(-.726 -.688 .688 -.726 6.42 21.075)" clip-path="url(#b)" d="M6.7-.4h1.5V19H6.7z"/><path fill="#00bde3" transform="matrix(-.707 -.707 .707 -.707 5.376 28.152)" clip-path="url(#b)" d="M7.8 4.1h1.5v17.8H7.8z"/><path fill="#00bde3" transform="matrix(-.708 -.706 .706 -.708 7.615 33.52)" clip-path="url(#b)" d="M10 9.4h1.5V21H10z"/><path fill="#00bde3" transform="matrix(-.707 -.707 .707 -.707 9.758 38.908)" clip-path="url(#b)" d="M12.2 14.8h1.5v5.3h-1.5z"/><path fill="#00bde3" transform="matrix(-.707 -.707 .707 -.707 13.461 47.85)" clip-path="url(#b)" d="M15.9 18.5h1.5v5.3h-1.5z"/><path fill="#00bde3" transform="matrix(-.707 -.707 .707 -.707 15.761 53.189)" clip-path="url(#b)" d="M18.1 17.6h1.5v11.6h-1.5z"/><path fill="#00bde3" transform="matrix(-.707 -.707 .707 -.707 17.97 58.553)" clip-path="url(#b)" d="M20.4 16.7h1.5v17.8h-1.5z"/><path fill="#00bde3" transform="matrix(-.708 -.706 .706 -.708 16.586 65.431)" clip-path="url(#b)" d="M21.1 19.3h1.5v19.9h-1.5z"/></svg>