<svg xmlns="http://www.w3.org/2000/svg" xmlns:xlink="http://www.w3.org/1999/xlink" width="55" height="236" viewBox="0 0 55 236"><svg width="41" height="41" viewBox="0 0 64 64" enable-background="new 0 0 64 64" id="easy_icon" y="0"><defs><path id="aaa" d="M0 0h64.2v64.2H0z"/></defs><clipPath id="aab"><use xlink:href="#aaa" overflow="visible"/></clipPath><path fill="#00bde3" clip-path="url(#aab)" d="M45.9 21.8L27.3 40.4l-8.2-8.2c-.6-.6-1.5-.6-2.1 0-.6.6-.6 1.5 0 2.1l9.3 9.3c.3.3.7.4 1 .4s.8-.2 1-.4L48 23.9c.6-.6.6-1.5 0-2.1-.6-.6-1.5-.6-2.1 0"/><path clip-path="url(#aab)" fill="none" stroke="#00bde3" stroke-width="2" stroke-miterlimit="10" d="M45.9 21.8L27.3 40.4l-8.2-8.2c-.6-.6-1.5-.6-2.1 0-.6.6-.6 1.5 0 2.1l9.3 9.3c.3.3.7.4 1 .4s.8-.2 1-.4L48 23.9c.6-.6.6-1.5 0-2.1-.6-.6-1.5-.6-2.1 0z"/><path fill="#00bde3" clip-path="url(#aab)" d="M32.1 1C15.2 1 1 15.2 1 32.1 1 49 15.2 63.2 32.1 63.2 49 63.2 63.2 49 63.2 32.1 63.2 15.2 49 1 32.1 1m0 59.3C16.9 60.3 4 47.4 4 32.1 4 16.9 16.9 4 32.1 4c15.3 0 28.1 12.9 28.1 28.1.1 15.3-12.8 28.2-28.1 28.2"/><path clip-path="url(#aab)" fill="none" stroke="#00bde3" stroke-width="2" stroke-miterlimit="10" d="M32.1 1C15.2 1 1 15.2 1 32.1 1 49 15.2 63.2 32.1 63.2 49 63.2 63.2 49 63.2 32.1 63.2 15.2 49 1 32.1 1zm0 59.3C16.9 60.3 4 47.4 4 32.1 4 16.9 16.9 4 32.1 4c15.3 0 28.1 12.9 28.1 28.1.1 15.3-12.8 28.2-28.1 28.2z"/></svg>
<svg width="42" height="36" viewBox="0 0 67 58" enable-background="new 0 0 67 58" id="growing_icon" y="41"><path fill="#00bde3" d="M11.9 45.8l2.1-3.7 8.4 7.9 3.8-8.1-4-2.1-1.2 2.7-8.1-7.6-5 8.8zM24 36.1l4 2.1 2.3-5-4-2.1zM0 .3v57.9h62.6v-3.8H7l2.9-5.1-4-2-2.2 3.8V.3z"/><defs><path id="aba" d="M0 0h66.7v58.2H0z"/></defs><clipPath id="abb"><use xlink:href="#aba" overflow="visible"/></clipPath><path fill="#00bde3" clip-path="url(#abb)" d="M66.6 16.8L64.2 0 47.6 4.8c-1.2.3-1.9 1.6-1.5 2.8.3 1.2 1.6 1.9 2.8 1.5l8.2-2.4-15 23.5-9.4-12.5-4.6 9.7 4 2.1 1.5-3.1 8.9 11.7L61 9l1.2 8.5c.2 1.1 1.1 1.9 2.2 1.9h.3c1.3-.3 2.1-1.4 1.9-2.6"/></svg>
<svg width="35" height="46" viewBox="0 0 30 39" enable-background="new 0 0 30 39" id="secure_icon" y="77"><defs><path fill="#00bde3" id="aca" d="M0 0h29.6v39.4H0z"/></defs><clipPath id="acb"><use xlink:href="#aca" overflow="visible"/></clipPath><path fill="#00bde3" clip-path="url(#acb)" d="M14.8 39.4l-7.5-5.9C2.7 29.9 0 24.4 0 18.5V5.7l.6-.1c1.5-.2 3.9-.6 6.3-1.4 3.2-1 5.7-2.2 7.4-3.8l.5-.4.5.4c1.7 1.5 4.1 2.8 7.4 3.8 2.4.8 4.8 1.2 6.3 1.4l.6.1v12.8c0 5.9-2.7 11.3-7.3 15l-7.5 5.9zM1.5 7v11.6C1.5 24 3.9 29 8.2 32.4l6.6 5.2 6.6-5.2c4.3-3.3 6.7-8.3 6.7-13.8V7c-1.6-.3-3.7-.7-5.9-1.3-3.1-1-5.6-2.1-7.4-3.6-1.8 1.4-4.3 2.6-7.4 3.5C5.2 6.2 3 6.7 1.5 7"/><path fill="#00bde3" clip-path="url(#acb)" d="M14.1.7h1.5v37h-1.5zM.7 18.5h28.1V20H.7z"/><path fill="#00bde3" transform="matrix(-.707 -.707 .707 -.707 .204 16.751)" clip-path="url(#acb)" d="M2.8 4.4h1.5v7.9H2.8z"/><path fill="#00bde3" transform="matrix(-.726 -.688 .688 -.726 6.42 21.075)" clip-path="url(#acb)" d="M6.7-.4h1.5V19H6.7z"/><path fill="#00bde3" transform="matrix(-.707 -.707 .707 -.707 5.376 28.152)" clip-path="url(#acb)" d="M7.8 4.1h1.5v17.8H7.8z"/><path fill="#00bde3" transform="matrix(-.708 -.706 .706 -.708 7.615 33.52)" clip-path="url(#acb)" d="M10 9.4h1.5V21H10z"/><path fill="#00bde3" transform="matrix(-.707 -.707 .707 -.707 9.758 38.908)" clip-path="url(#acb)" d="M12.2 14.8h1.5v5.3h-1.5z"/><path fill="#00bde3" transform="matrix(-.707 -.707 .707 -.707 13.461 47.85)" clip-path="url(#acb)" d="M15.9 18.5h1.5v5.3h-1.5z"/><path fill="#00bde3" transform="matrix(-.707 -.707 .707 -.707 15.761 53.189)" clip-path="url(#acb)" d="M18.1 17.6h1.5v11.6h-1.5z"/><path fill="#00bde3" transform="matrix(-.707 -.707 .707 -.707 17.97 58.553)" clip-path="url(#acb)" d="M20.4 16.7h1.5v17.8h-1.5z"/><path fill="#00bde3" transform="matrix(-.708 -.706 .706 -.708 16.586 65.431)" clip-path="url(#acb)" d="M21.1 19.3h1.5v19.9h-1.5z"/></svg>
<svg width="48" height="40" viewBox="0 0 64 54" enable-background="new 0 0 64 54" id="stable_return_icon" y="123"><defs><path id="ada" d="M0 0h63.7v53.7H0z"/></defs><clipPath id="adb"><use xlink:href="#ada" overflow="visible"/></clipPath><path fill="#00bde3" clip-path="url(#adb)" d="M55.4 33.6c-1.3-.6-2.8 0-3.3 1.3 0 .1 0 .1-.1.2-.3.7-.6 1.3-.9 1.9l4.6 2.1c.3-.7.7-1.4 1-2.1.6-1.4 0-2.9-1.3-3.4M54.1 41.8l-4.7-2.1c-.7 1-1.5 1.9-2.4 2.8l4.6 2.5c.9-1 1.8-2.1 2.5-3.2"/><path fill="#00bde3" clip-path="url(#adb)" d="M37.3 47.9c-1.7.5-3.6.7-5.5.7-9.5 0-17.6-6.1-20.5-14.5l1 1c.5.5 1.3.8 2 .7.2 0 .5-.1.7-.2.1 0 .2-.1.3-.2.5-.3.9-.8 1.1-1.4 0-.1.1-.2.1-.3V33c-.1-.6-.3-1.2-.8-1.6L10.3 26l-.2-.2c-.5-.6-1.3-1-2.1-.9h-.3.2H7.6c-.1 0-.3.1-.4.2h-.1l-.1.1h-.1l-.1.1h-.1l-.1.1c0 .1-.1.1-.1.2L.9 31.2c-1.1.9-1.1 2.7-.2 3.7 1 1 2.8.9 3.7-.1l1.5-1.5c3 11.5 13.5 20 26 20 3.6 0 7-.7 10.1-2l-4.7-3.4zM49.2 47.3l-4.8-2.7c-1.1.8-2.3 1.5-3.6 2.1l4.3 3.5c1.5-.9 2.9-1.8 4.1-2.9"/><path fill="#00bde3" clip-path="url(#adb)" d="M18.9 3.3c-1.5.8-2.9 1.8-4.2 2.8l4.8 2.7c1.1-.8 2.3-1.4 3.6-2l-4.2-3.5zM12.4 8.4c-.9 1-1.8 2-2.6 3.1l4.7 2.1c.7-1 1.5-1.9 2.4-2.7l-4.5-2.5zM8.1 14.3c-.4.8-.8 1.6-1.2 2.5-.6 1.3 0 2.8 1.3 3.4 1.3.6 2.8 0 3.4-1.3 0-.1 0-.1.1-.2.3-.8.7-1.6 1.1-2.3l-4.7-2.1zM63 18.5c-1-1-2.8-.9-3.7.1l-1.5 1.5C54.8 8.5 44.3 0 31.9 0c-3.4 0-6.7.7-9.8 1.8l4.7 3.8c1.6-.4 3.3-.6 5.1-.6 9.5 0 17.5 6.1 20.5 14.5l-1-1c-.7-.7-1.9-1-2.8-.6-.3.1-.7.4-.9.6-.1.1-.2.2-.2.3-.2.3-.4.6-.4 1v.7c.1.6.3 1.2.8 1.6l5.4 5.4c0 .1.1.1.2.2.6.7 1.5 1.1 2.4.9h.4c.1 0 .3-.1.4-.2h.1l.1-.1h.1l.1-.1h.1l.1-.1c0-.1.1-.1.1-.2l5.6-5.6c.9-1.1 1-2.9 0-3.8"/></svg>
<svg width="55" height="32" viewBox="0 0 74 45" enable-background="new 0 0 74 45" id="trade_icon" y="163"><path fill="#00bde3" d="M5.5 10.5l-1.8 2.9 1.8 1.3 1.8-2.9z"/><path fill="none" stroke="#00bde3" stroke-miterlimit="10" d="M5.5 10.5l-1.8 2.9 1.8 1.3 1.8-2.9z"/><path fill="#00bde3" d="M68.5 7.5l-2.1.9 1.2 3.2 2.1-.9z"/><path fill="none" stroke="#00bde3" stroke-miterlimit="10" d="M68.5 7.5l-2.1.9 1.2 3.2 2.1-.9z"/><path fill="#00bde3" d="M70.5 13.2l-2 .8 1.2 3.2 2-.8z"/><path fill="none" stroke="#00bde3" stroke-miterlimit="10" d="M70.5 13.2l-2 .8 1.2 3.2 2-.8z"/><path fill="#00bde3" d="M8.9 5.5L7 8.4l1.8 1.2 1.9-2.8z"/><path fill="none" stroke="#00bde3" stroke-miterlimit="10" d="M8.9 5.5L7 8.4l1.8 1.2 1.9-2.8z"/><defs><path id="aea" d="M0 0h74.2v45H0z"/></defs><clipPath id="aeb"><use xlink:href="#aea" overflow="visible"/></clipPath><path fill="#00bde3" clip-path="url(#aeb)" d="M72.6 18.8l-2 .8.7 1.8-11.8 5.9-8.3-8.3c-.1-.1-.3-.2-.5-.3-.1 0-8.3-2.5-9.5-8.9-.1-.5-.6-.9-1.1-.9H40l-4 .4c-.2 0-.4.1-.6.3-1 .9-4.1 3.1-6.4 3.1-.8 0-1.3-.2-1.8-.7-.1-.2-.4-1.3 1.7-3.5C32.7 4.7 34.3 4 34.3 4h.1s2.1-.9 4.2-.9c.3 0 .7 0 1 .1 1.7.3 8.4 3.8 12.4 6 .3.2.6.2.9.1l12-4.8.5 1.4 2.1-.9-.8-2.2c-.1-.3-.3-.5-.5-.7-.2-.1-.5-.1-.8 0l-12.7 5C50.6 5.9 42.4 1.4 39.9 1c-.4-.1-.9-.1-1.3-.1-2.2 0-4.3.8-4.9 1-1.4.1-8.3 1-13 3.4C16.6 3.2 13.4.8 13.4.8c-.2-.2-.6-.3-.9-.2-.3 0-.5.1-.7.4l-1.5 2.3 1.8 1.3.9-1.4c1.4 1 4.1 2.7 7.2 4.3.3.2.7.2 1 0 2.4-1.3 5.8-2.2 8.4-2.7-.7.6-1.5 1.4-2.3 2.3-3.6 3.8-2 6.1-1.8 6.4.9 1 2.1 1.6 3.5 1.6 3.1 0 6.6-2.6 7.5-3.5l2.7-.3c1.8 6.3 9 9 10.5 9.5l8.7 8.7c.1 0 .1.1.2.1 0 .8-.3 1.5-.7 1.9-.6.6-1.7.7-2.3.6l-8.5-7.7c-.5-.4-1.2-.4-1.6.1-.4.5-.4 1.2.1 1.6l8.2 7.4c-.1.9-.3 1.7-.9 2.2-.7.6-1.7.8-2.3.8l-8-7.6c-.4-.4-1.1-.4-1.6 0-.4.4-.4 1.1 0 1.6l7.7 7.4c-.2.8-.5 1.4-1 1.8-.5.4-1.2.5-1.7.5 0 0 0-.1-.1-.1L39 33.5c-.4-.4-1.1-.4-1.6 0-.4.4-.4 1.1 0 1.6l6 5.7v.1c-.2 1-.6 1.2-.8 1.2-.9.4-2.4-.3-2.9-.6l-3.5-2.4.3-3.1v-.2c-.7-2.5-2.2-3.5-3.3-3.8-1.3-2.6-3.1-3-4.1-3-.3 0-.6 0-.8.1-.7-2.4-2.2-2.8-3.2-2.8-1.1 0-2.1.6-2.9 1.1-1-1.1-2.1-1.7-3.2-1.7-1.2 0-2.3.6-3.2 1.9l-13-9.3L4 16.8l-1.8-1.3-1.5 2.3c-.3.5-.2 1.2.3 1.5l14 10c-.5 1.1-.5 2.3-.1 3.3.8 1.8 2.7 2.8 3.7 3.2.8 3.2 2.8 3.7 4 3.7.4 0 .8-.1 1.1-.1 1.1 2.5 2.7 3 3.8 3 .6 0 1.1-.2 1.6-.3.7.8 1.9 1.8 3.7 2h.5c1.1 0 1.8-.5 2.1-.8.5-.5.7-1.2.8-1.7l2.5 1.7h.1c.2.1 1.8 1 3.4 1 .5 0 1-.1 1.5-.3.6-.2 1.3-.8 1.8-1.8.9 0 2.4-.1 3.6-.9.9-.6 1.6-1.6 1.9-2.8.9-.1 2.4-.4 3.5-1.4.8-.8 1.3-1.7 1.5-3 1 0 2.4-.2 3.4-1.2 1-.9 1.5-2.3 1.4-4L73 22.8c.5-.2.7-.8.6-1.3l-1-2.7zM18.5 33.3c-.6-.4-1.3-.9-1.6-1.5-.2-.5-.2-1 .1-1.6.7-1.5 1.5-2.3 2.2-2.3.4 0 .9.3 1.5.9-.8 1-1.9 2.7-2.2 4.5m4.7 4c-.2 0-.4.1-.6.1-.4 0-1.5 0-1.9-2.5-.3-1.7.7-3.4 1.6-4.5l.8-.7c.5-.5 1.5-1.2 2.3-1.2.6 0 1 .8 1.2 1.7-1.1 1.1-3.3 4.1-3.4 7.1m5 2.8c-.2.1-.4.1-.6.1-1 0-1.7-1.3-2.1-2.4-.4-2.2 1.8-5.3 2.9-6.5.2-.1.5-.2.9-.2.7 0 1.3.4 1.7 1.1-.5.2-.9.6-1.3 1.1-1.3 1.6-1.8 4.2-1.5 6.8m6 .9c0 .2-.1.7-.3.9 0 0-.2.2-.5.2h-.3c-1.5-.2-2.4-1.4-2.7-1.7-.4-2 0-4.4 1-5.5.4-.4.8-.7 1.2-.7.1 0 1.3.1 1.9 2.1l-.3 4.7z"/><path clip-path="url(#aeb)" fill="none" stroke="#00bde3" stroke-miterlimit="10" d="M72.6 18.8l-2 .8.7 1.8-11.8 5.9-8.3-8.3c-.1-.1-.3-.2-.5-.3-.1 0-8.3-2.5-9.5-8.9-.1-.5-.6-.9-1.1-.9H40l-4 .4c-.2 0-.4.1-.6.3-1 .9-4.1 3.1-6.4 3.1-.8 0-1.3-.2-1.8-.7-.1-.2-.4-1.3 1.7-3.5C32.7 4.7 34.3 4 34.3 4h.1s2.1-.9 4.2-.9c.3 0 .7 0 1 .1 1.7.3 8.4 3.8 12.4 6 .3.2.6.2.9.1l12-4.8.5 1.4 2.1-.9-.8-2.2c-.1-.3-.3-.5-.5-.7-.2-.1-.5-.1-.8 0l-12.7 5C50.6 5.9 42.4 1.4 39.9 1c-.4-.1-.9-.1-1.3-.1-2.2 0-4.3.8-4.9 1-1.4.1-8.3 1-13 3.4C16.6 3.2 13.4.8 13.4.8c-.2-.2-.6-.3-.9-.2-.3 0-.5.1-.7.4l-1.5 2.3 1.8 1.3.9-1.4c1.4 1 4.1 2.7 7.2 4.3.3.2.7.2 1 0 2.4-1.3 5.8-2.2 8.4-2.7-.7.6-1.5 1.4-2.3 2.3-3.6 3.8-2 6.1-1.8 6.4.9 1 2.1 1.6 3.5 1.6 3.1 0 6.6-2.6 7.5-3.5l2.7-.3c1.8 6.3 9 9 10.5 9.5l8.7 8.7c.1 0 .1.1.2.1 0 .8-.3 1.5-.7 1.9-.6.6-1.7.7-2.3.6l-8.5-7.7c-.5-.4-1.2-.4-1.6.1-.4.5-.4 1.2.1 1.6l8.2 7.4c-.1.9-.3 1.7-.9 2.2-.7.6-1.7.8-2.3.8l-8-7.6c-.4-.4-1.1-.4-1.6 0-.4.4-.4 1.1 0 1.6l7.7 7.4c-.2.8-.5 1.4-1 1.8-.5.4-1.2.5-1.7.5 0 0 0-.1-.1-.1L39 33.5c-.4-.4-1.1-.4-1.6 0-.4.4-.4 1.1 0 1.6l6 5.7v.1c-.2 1-.6 1.2-.8 1.2-.9.4-2.4-.3-2.9-.6l-3.5-2.4.3-3.1v-.2c-.7-2.5-2.2-3.5-3.3-3.8-1.3-2.6-3.1-3-4.1-3-.3 0-.6 0-.8.1-.7-2.4-2.2-2.8-3.2-2.8-1.1 0-2.1.6-2.9 1.1-1-1.1-2.1-1.7-3.2-1.7-1.2 0-2.3.6-3.2 1.9l-13-9.3L4 16.8l-1.8-1.3-1.5 2.3c-.3.5-.2 1.2.3 1.5l14 10c-.5 1.1-.5 2.3-.1 3.3.8 1.8 2.7 2.8 3.7 3.2.8 3.2 2.8 3.7 4 3.7.4 0 .8-.1 1.1-.1 1.1 2.5 2.7 3 3.8 3 .6 0 1.1-.2 1.6-.3.7.8 1.9 1.8 3.7 2h.5c1.1 0 1.8-.5 2.1-.8.5-.5.7-1.2.8-1.7l2.5 1.7h.1c.2.1 1.8 1 3.4 1 .5 0 1-.1 1.5-.3.6-.2 1.3-.8 1.8-1.8.9 0 2.4-.1 3.6-.9.9-.6 1.6-1.6 1.9-2.8.9-.1 2.4-.4 3.5-1.4.8-.8 1.3-1.7 1.5-3 1 0 2.4-.2 3.4-1.2 1-.9 1.5-2.3 1.4-4L73 22.8c.5-.2.7-.8.6-1.3l-1-2.7zM18.5 33.3c-.6-.4-1.3-.9-1.6-1.5-.2-.5-.2-1 .1-1.6.7-1.5 1.5-2.3 2.2-2.3.4 0 .9.3 1.5.9-.8 1-1.9 2.7-2.2 4.5zm4.7 4c-.2 0-.4.1-.6.1-.4 0-1.5 0-1.9-2.5-.3-1.7.7-3.4 1.6-4.5l.8-.7c.5-.5 1.5-1.2 2.3-1.2.6 0 1 .8 1.2 1.7-1.1 1.1-3.3 4.1-3.4 7.1zm5 2.8c-.2.1-.4.1-.6.1-1 0-1.7-1.3-2.1-2.4-.4-2.2 1.8-5.3 2.9-6.5.2-.1.5-.2.9-.2.7 0 1.3.4 1.7 1.1-.5.2-.9.6-1.3 1.1-1.3 1.6-1.8 4.2-1.5 6.8zm6 .9c0 .2-.1.7-.3.9 0 0-.2.2-.5.2h-.3c-1.5-.2-2.4-1.4-2.7-1.7-.4-2 0-4.4 1-5.5.4-.4.8-.7 1.2-.7.1 0 1.3.1 1.9 2.1l-.3 4.7z"/></svg>
<svg width="42" height="41" viewBox="0 0 67 67" enable-background="new 0 0 67 67" id="transparent_icon" y="195"><defs><path id="afa" d="M0 0h66.6v66.7H0z"/></defs><clipPath id="afb"><use xlink:href="#afa" overflow="visible"/></clipPath><path fill="#00bde3" clip-path="url(#afb)" d="M25.8 3.9c1.2-.3 2.5-.5 3.7-.7.3 0 .6-.1.9-.1L30.1.2c-.2 0-.4 0-.7.1h-.2c-2.6.4-3.4.5-4.2.7l.8 2.9zm-8.7 3.7c1.3-.8 2.7-1.6 4.2-2.2l-1.2-2.7H20c-.7.4-1.4.8-2 1.2l-.9 3.7zM10 13.8c1-1.2 2.1-2.3 3.3-3.4l-1.9-2.2c-1.3 1.1-2.5 2.4-3.6 3.7l2.2 1.9zm-4.9 8c.6-1.5 1.3-2.9 2.1-4.2l-2.5-1.5c-.8 1.4-1.5 2.8-2.1 4.2l2.5 1.5zM3 31c.1-1.6.4-3.1.7-4.7l-2.9-.7c-.2.7-.3 1.4-.4 2.1v.1C.1 29.5.1 30 0 30.4v.1l3 .5zM.8 41l2.9-.7c-.3-1.1-.5-2.2-.6-3.3-.1-.4-.1-.8-.1-1.3l-3 .2v.3c0 .3.1.6.1.9v.4c.1.3.1.7.2 1v.1c.3 1.7.4 2.1.5 2.4m3.9 9.6l2.5-1.5c-.8-1.3-1.5-2.8-2.1-4.2L2.4 46c.7 1.8 1.5 3.2 2.3 4.6m6.7 7.9l1.9-2.2c-1.2-1-2.3-2.2-3.3-3.4l-2.3 1.9c1.2 1.3 2.4 2.6 3.7 3.7m8.7 5.5l1.2-2.7c-1.4-.6-2.9-1.4-4.2-2.2l-1.6 2.5c.6.4 1.2.8 1.9 1.1H17.7c1.8 1 2.1 1.1 2.4 1.3m10 2.5l.3-3c-1.6-.1-3.1-.4-4.6-.8l-.8 3c.3.1.5.1.8.2.4.1.8.1 1.1.2h.2c2.2.3 2.6.4 3 .4M33.2 0v66.7c18.4 0 33.3-14.9 33.3-33.3C66.6 14.9 51.6 0 33.2 0"/></svg>
</svg>