<!DOCTYPE svg PUBLIC "-//W3C//DTD SVG 1.1//EN" "http://www.w3.org/Graphics/SVG/1.1/DTD/svg11.dtd" [
	<!ENTITY ns_flows "http://ns.adobe.com/Flows/1.0/">
]><svg xmlns="http://www.w3.org/2000/svg" xmlns:xlink="http://www.w3.org/1999/xlink" width="48" height="40" viewBox="0 0 64 54"><defs><path id="a" d="M0 0h63.7v53.7H0z"/></defs><clipPath id="b"><use xlink:href="#a" overflow="visible"/></clipPath><path fill="#00bde3" clip-path="url(#b)" d="M55.4 33.6c-1.3-.6-2.8 0-3.3 1.3 0 .1 0 .1-.1.2-.3.7-.6 1.3-.9 1.9l4.6 2.1c.3-.7.7-1.4 1-2.1.6-1.4 0-2.9-1.3-3.4M54.1 41.8l-4.7-2.1c-.7 1-1.5 1.9-2.4 2.8l4.6 2.5c.9-1 1.8-2.1 2.5-3.2M37.3 47.9c-1.7.5-3.6.7-5.5.7-9.5 0-17.6-6.1-20.5-14.5l1 1c.5.5 1.3.8 2 .7.2 0 .5-.1.7-.2.1 0 .2-.1.3-.2.5-.3.9-.8 1.1-1.4 0-.1.1-.2.1-.3v-.4-.3c-.1-.6-.3-1.2-.8-1.6L10.3 26l-.2-.2c-.5-.6-1.3-1-2.1-.9h-.3.2-.2-.1c-.1 0-.3.1-.4.2h-.1l-.1.1h-.1l-.1.1h-.1l-.1.1c0 .1-.1.1-.1.2L.9 31.2c-1.1.9-1.1 2.7-.2 3.7 1 1 2.8.9 3.7-.1l1.5-1.5c3 11.5 13.5 20 26 20 3.6 0 7-.7 10.1-2l-4.7-3.4zM49.2 47.3l-4.8-2.7c-1.1.8-2.3 1.5-3.6 2.1l4.3 3.5c1.5-.9 2.9-1.8 4.1-2.9M18.9 3.3c-1.5.8-2.9 1.8-4.2 2.8l4.8 2.7c1.1-.8 2.3-1.4 3.6-2l-4.2-3.5zM12.4 8.4c-.9 1-1.8 2-2.6 3.1l4.7 2.1c.7-1 1.5-1.9 2.4-2.7l-4.5-2.5zM8.1 14.3c-.4.8-.8 1.6-1.2 2.5-.6 1.3 0 2.8 1.3 3.4 1.3.6 2.8 0 3.4-1.3 0-.1 0-.1.1-.2.3-.8.7-1.6 1.1-2.3l-4.7-2.1zM63 18.5c-1-1-2.8-.9-3.7.1l-1.5 1.5C54.8 8.5 44.3 0 31.9 0c-3.4 0-6.7.7-9.8 1.8l4.7 3.8c1.6-.4 3.3-.6 5.1-.6 9.5 0 17.5 6.1 20.5 14.5l-1-1c-.7-.7-1.9-1-2.8-.6-.3.1-.7.4-.9.6-.1.1-.2.2-.2.3-.2.3-.4.6-.4 1v.7c.1.6.3 1.2.8 1.6l5.4 5.4c0 .1.1.1.2.2.6.7 1.5 1.1 2.4.9h.4c.1 0 .3-.1.4-.2h.1l.1-.1h.1l.1-.1h.1l.1-.1c0-.1.1-.1.1-.2l5.6-5.6c.9-1.1 1-2.9 0-3.8"/></svg>