<!DOCTYPE svg PUBLIC "-//W3C//DTD SVG 1.1//EN" "http://www.w3.org/Graphics/SVG/1.1/DTD/svg11.dtd" [
	<!ENTITY ns_flows "http://ns.adobe.com/Flows/1.0/">
]><svg xmlns="http://www.w3.org/2000/svg" xmlns:xlink="http://www.w3.org/1999/xlink" width="55" height="32" viewBox="0 0 74 45"><path fill="#00bde3" d="M5.5 10.5l-1.8 2.9 1.8 1.3 1.8-2.9"/><path fill="none" stroke="#00bde3" stroke-miterlimit="10" d="M5.5 10.5l-1.8 2.9 1.8 1.3 1.8-2.9z"/><path fill="#00bde3" d="M68.5 7.5l-2.1.9 1.2 3.2 2.1-.9"/><path fill="none" stroke="#00bde3" stroke-miterlimit="10" d="M68.5 7.5l-2.1.9 1.2 3.2 2.1-.9z"/><path fill="#00bde3" d="M70.5 13.2l-2 .8 1.2 3.2 2-.8"/><path fill="none" stroke="#00bde3" stroke-miterlimit="10" d="M70.5 13.2l-2 .8 1.2 3.2 2-.8z"/><path fill="#00bde3" d="M8.9 5.5L7 8.4l1.8 1.2 1.9-2.8"/><path fill="none" stroke="#00bde3" stroke-miterlimit="10" d="M8.9 5.5L7 8.4l1.8 1.2 1.9-2.8z"/><defs><path id="a" d="M0 0h74.2v45H0z"/></defs><clipPath id="b"><use xlink:href="#a" overflow="visible"/></clipPath><path fill="#00bde3" clip-path="url(#b)" d="M72.6 18.8l-2 .8.7 1.8-11.8 5.9-8.3-8.3c-.1-.1-.3-.2-.5-.3-.1 0-8.3-2.5-9.5-8.9-.1-.5-.6-.9-1.1-.9H40l-4 .4c-.2 0-.4.1-.6.3-1 .9-4.1 3.1-6.4 3.1-.8 0-1.3-.2-1.8-.7-.1-.2-.4-1.3 1.7-3.5C32.7 4.7 34.3 4 34.3 4h.1s2.1-.9 4.2-.9c.3 0 .7 0 1 .1 1.7.3 8.4 3.8 12.4 6 .3.2.6.2.9.1l12-4.8.5 1.4 2.1-.9-.8-2.2c-.1-.3-.3-.5-.5-.7-.2-.1-.5-.1-.8 0l-12.7 5C50.6 5.9 42.4 1.4 39.9 1c-.4-.1-.9-.1-1.3-.1-2.2 0-4.3.8-4.9 1-1.4.1-8.3 1-13 3.4C16.6 3.2 13.4.8 13.4.8c-.2-.2-.6-.3-.9-.2-.3 0-.5.1-.7.4l-1.5 2.3 1.8 1.3.9-1.4c1.4 1 4.1 2.7 7.2 4.3.3.2.7.2 1 0 2.4-1.3 5.8-2.2 8.4-2.7-.7.6-1.5 1.4-2.3 2.3-3.6 3.8-2 6.1-1.8 6.4.9 1 2.1 1.6 3.5 1.6 3.1 0 6.6-2.6 7.5-3.5l2.7-.3c1.8 6.3 9 9 10.5 9.5l8.7 8.7c.1 0 .1.1.2.1 0 .8-.3 1.5-.7 1.9-.6.6-1.7.7-2.3.6l-8.5-7.7c-.5-.4-1.2-.4-1.6.1-.4.5-.4 1.2.1 1.6l8.2 7.4c-.1.9-.3 1.7-.9 2.2-.7.6-1.7.8-2.3.8l-8-7.6c-.4-.4-1.1-.4-1.6 0-.4.4-.4 1.1 0 1.6l7.7 7.4c-.2.8-.5 1.4-1 1.8-.5.4-1.2.5-1.7.5 0 0 0-.1-.1-.1L39 33.5c-.4-.4-1.1-.4-1.6 0-.4.4-.4 1.1 0 1.6l6 5.7v.1c-.2 1-.6 1.2-.8 1.2-.9.4-2.4-.3-2.9-.6l-3.5-2.4.3-3.1v-.2c-.7-2.5-2.2-3.5-3.3-3.8-1.3-2.6-3.1-3-4.1-3-.3 0-.6 0-.8.1-.7-2.4-2.2-2.8-3.2-2.8-1.1 0-2.1.6-2.9 1.1-1-1.1-2.1-1.7-3.2-1.7-1.2 0-2.3.6-3.2 1.9l-13-9.3L4 16.8l-1.8-1.3-1.5 2.3c-.3.5-.2 1.2.3 1.5l14 10c-.5 1.1-.5 2.3-.1 3.3.8 1.8 2.7 2.8 3.7 3.2.8 3.2 2.8 3.7 4 3.7.4 0 .8-.1 1.1-.1 1.1 2.5 2.7 3 3.8 3 .6 0 1.1-.2 1.6-.3.7.8 1.9 1.8 3.7 2h.5c1.1 0 1.8-.5 2.1-.8.5-.5.7-1.2.8-1.7l2.5 1.7h.1c.2.1 1.8 1 3.4 1 .5 0 1-.1 1.5-.3.6-.2 1.3-.8 1.8-1.8.9 0 2.4-.1 3.6-.9.9-.6 1.6-1.6 1.9-2.8.9-.1 2.4-.4 3.5-1.4.8-.8 1.3-1.7 1.5-3 1 0 2.4-.2 3.4-1.2 1-.9 1.5-2.3 1.4-4L73 22.8c.5-.2.7-.8.6-1.3l-1-2.7zM18.5 33.3c-.6-.4-1.3-.9-1.6-1.5-.2-.5-.2-1 .1-1.6.7-1.5 1.5-2.3 2.2-2.3.4 0 .9.3 1.5.9-.8 1-1.9 2.7-2.2 4.5m4.7 4c-.2 0-.4.1-.6.1-.4 0-1.5 0-1.9-2.5-.3-1.7.7-3.4 1.6-4.5l.8-.7c.5-.5 1.5-1.2 2.3-1.2.6 0 1 .8 1.2 1.7-1.1 1.1-3.3 4.1-3.4 7.1m5 2.8c-.2.1-.4.1-.6.1-1 0-1.7-1.3-2.1-2.4-.4-2.2 1.8-5.3 2.9-6.5.2-.1.5-.2.9-.2.7 0 1.3.4 1.7 1.1-.5.2-.9.6-1.3 1.1-1.3 1.6-1.8 4.2-1.5 6.8m6 .9c0 .2-.1.7-.3.9 0 0-.2.2-.5.2h-.3c-1.5-.2-2.4-1.4-2.7-1.7-.4-2 0-4.4 1-5.5.4-.4.8-.7 1.2-.7.1 0 1.3.1 1.9 2.1l-.3 4.7z"/><path clip-path="url(#b)" fill="none" stroke="#00bde3" stroke-miterlimit="10" d="M72.6 18.8l-2 .8.7 1.8-11.8 5.9-8.3-8.3c-.1-.1-.3-.2-.5-.3-.1 0-8.3-2.5-9.5-8.9-.1-.5-.6-.9-1.1-.9H40l-4 .4c-.2 0-.4.1-.6.3-1 .9-4.1 3.1-6.4 3.1-.8 0-1.3-.2-1.8-.7-.1-.2-.4-1.3 1.7-3.5C32.7 4.7 34.3 4 34.3 4h.1s2.1-.9 4.2-.9c.3 0 .7 0 1 .1 1.7.3 8.4 3.8 12.4 6 .3.2.6.2.9.1l12-4.8.5 1.4 2.1-.9-.8-2.2c-.1-.3-.3-.5-.5-.7-.2-.1-.5-.1-.8 0l-12.7 5C50.6 5.9 42.4 1.4 39.9 1c-.4-.1-.9-.1-1.3-.1-2.2 0-4.3.8-4.9 1-1.4.1-8.3 1-13 3.4C16.6 3.2 13.4.8 13.4.8c-.2-.2-.6-.3-.9-.2-.3 0-.5.1-.7.4l-1.5 2.3 1.8 1.3.9-1.4c1.4 1 4.1 2.7 7.2 4.3.3.2.7.2 1 0 2.4-1.3 5.8-2.2 8.4-2.7-.7.6-1.5 1.4-2.3 2.3-3.6 3.8-2 6.1-1.8 6.4.9 1 2.1 1.6 3.5 1.6 3.1 0 6.6-2.6 7.5-3.5l2.7-.3c1.8 6.3 9 9 10.5 9.5l8.7 8.7c.1 0 .1.1.2.1 0 .8-.3 1.5-.7 1.9-.6.6-1.7.7-2.3.6l-8.5-7.7c-.5-.4-1.2-.4-1.6.1-.4.5-.4 1.2.1 1.6l8.2 7.4c-.1.9-.3 1.7-.9 2.2-.7.6-1.7.8-2.3.8l-8-7.6c-.4-.4-1.1-.4-1.6 0-.4.4-.4 1.1 0 1.6l7.7 7.4c-.2.8-.5 1.4-1 1.8-.5.4-1.2.5-1.7.5 0 0 0-.1-.1-.1L39 33.5c-.4-.4-1.1-.4-1.6 0-.4.4-.4 1.1 0 1.6l6 5.7v.1c-.2 1-.6 1.2-.8 1.2-.9.4-2.4-.3-2.9-.6l-3.5-2.4.3-3.1v-.2c-.7-2.5-2.2-3.5-3.3-3.8-1.3-2.6-3.1-3-4.1-3-.3 0-.6 0-.8.1-.7-2.4-2.2-2.8-3.2-2.8-1.1 0-2.1.6-2.9 1.1-1-1.1-2.1-1.7-3.2-1.7-1.2 0-2.3.6-3.2 1.9l-13-9.3L4 16.8l-1.8-1.3-1.5 2.3c-.3.5-.2 1.2.3 1.5l14 10c-.5 1.1-.5 2.3-.1 3.3.8 1.8 2.7 2.8 3.7 3.2.8 3.2 2.8 3.7 4 3.7.4 0 .8-.1 1.1-.1 1.1 2.5 2.7 3 3.8 3 .6 0 1.1-.2 1.6-.3.7.8 1.9 1.8 3.7 2h.5c1.1 0 1.8-.5 2.1-.8.5-.5.7-1.2.8-1.7l2.5 1.7h.1c.2.1 1.8 1 3.4 1 .5 0 1-.1 1.5-.3.6-.2 1.3-.8 1.8-1.8.9 0 2.4-.1 3.6-.9.9-.6 1.6-1.6 1.9-2.8.9-.1 2.4-.4 3.5-1.4.8-.8 1.3-1.7 1.5-3 1 0 2.4-.2 3.4-1.2 1-.9 1.5-2.3 1.4-4L73 22.8c.5-.2.7-.8.6-1.3l-1-2.7zM18.5 33.3c-.6-.4-1.3-.9-1.6-1.5-.2-.5-.2-1 .1-1.6.7-1.5 1.5-2.3 2.2-2.3.4 0 .9.3 1.5.9-.8 1-1.9 2.7-2.2 4.5zm4.7 4c-.2 0-.4.1-.6.1-.4 0-1.5 0-1.9-2.5-.3-1.7.7-3.4 1.6-4.5l.8-.7c.5-.5 1.5-1.2 2.3-1.2.6 0 1 .8 1.2 1.7-1.1 1.1-3.3 4.1-3.4 7.1zm5 2.8c-.2.1-.4.1-.6.1-1 0-1.7-1.3-2.1-2.4-.4-2.2 1.8-5.3 2.9-6.5.2-.1.5-.2.9-.2.7 0 1.3.4 1.7 1.1-.5.2-.9.6-1.3 1.1-1.3 1.6-1.8 4.2-1.5 6.8zm6 .9c0 .2-.1.7-.3.9 0 0-.2.2-.5.2h-.3c-1.5-.2-2.4-1.4-2.7-1.7-.4-2 0-4.4 1-5.5.4-.4.8-.7 1.2-.7.1 0 1.3.1 1.9 2.1l-.3 4.7z"/></svg>